<?xml version="1.0" encoding="UTF-8"?>
<!-- Created with Inkscape (http://www.inkscape.org/) -->
<svg width="300" height="300" version="1.1" viewBox="0 0 300 300" xmlns="http://www.w3.org/2000/svg" xmlns:cc="http://creativecommons.org/ns#" xmlns:dc="http://purl.org/dc/elements/1.1/" xmlns:rdf="http://www.w3.org/1999/02/22-rdf-syntax-ns#">
 <metadata>
  <rdf:RDF>
   <cc:Work rdf:about="">
    <dc:format>image/svg+xml</dc:format>
    <dc:type rdf:resource="http://purl.org/dc/dcmitype/StillImage"/>
    <dc:title/>
   </cc:Work>
  </rdf:RDF>
 </metadata>
 <g transform="translate(0 -217.62)">
  <rect y="217.62" width="300" height="300" rx="15" ry="15" fill="#aaa"/>
  <g fill="none" stroke-linejoin="bevel">
   <path d="m200 217.62a200 100 0 0 1-200 100" stroke="#000" stroke-width="15"/>
   <path d="m100 517.62a50 50 0 0 1 50-50 50 50 0 0 1 50 50" stroke="#000" stroke-width="15"/>
   <path d="m100 217.62a100 200 0 0 1-100 200" stroke="#aaa" stroke-width="25"/>
   <path d="m100 217.62a100 200 0 0 1-100 200" stroke="#000" stroke-width="15"/>
   <path d="m300 417.62a50 50 0 0 1-43.301-25 50 50 0 0 1 0-50 50 50 0 0 1 43.301-25" stroke="#000" stroke-width="15"/>
  </g>
 </g>
</svg>
