<?xml version="1.0" encoding="UTF-8"?>
<!-- Created with Inkscape (http://www.inkscape.org/) -->
<svg width="300" height="300" version="1.1" viewBox="0 0 300 300" xmlns="http://www.w3.org/2000/svg" xmlns:cc="http://creativecommons.org/ns#" xmlns:dc="http://purl.org/dc/elements/1.1/" xmlns:rdf="http://www.w3.org/1999/02/22-rdf-syntax-ns#">
 <metadata>
  <rdf:RDF>
   <cc:Work rdf:about="">
    <dc:format>image/svg+xml</dc:format>
    <dc:type rdf:resource="http://purl.org/dc/dcmitype/StillImage"/>
    <dc:title/>
   </cc:Work>
  </rdf:RDF>
 </metadata>
 <g transform="translate(0 -217.62)">
  <rect transform="rotate(90)" x="217.62" y="-300" width="300" height="300" rx="15" ry="15" fill="#aaa"/>
  <g fill="none">
   <g stroke="#000" stroke-linejoin="bevel" stroke-width="15">
    <path transform="rotate(90)" d="m517.62-100a50 50 0 0 1-43.301-25 50 50 0 0 1 0-50 50 50 0 0 1 43.301-25"/>
    <path transform="rotate(90)" d="m417.62-300a200 100 0 0 1-200 100"/>
    <path transform="rotate(90)" d="m217.62-100a200 100 0 0 1 200 100"/>
   </g>
   <path d="m300 317.63h-300" stroke="#aaa" stroke-width="25"/>
   <path d="m300 317.63h-300" stroke="#000" stroke-width="15"/>
  </g>
 </g>
</svg>
