<?xml version="1.0" encoding="UTF-8"?>
<!-- Created with Inkscape (http://www.inkscape.org/) -->
<svg width="300" height="300" version="1.1" viewBox="0 0 300 300" xmlns="http://www.w3.org/2000/svg" xmlns:cc="http://creativecommons.org/ns#" xmlns:dc="http://purl.org/dc/elements/1.1/" xmlns:rdf="http://www.w3.org/1999/02/22-rdf-syntax-ns#">
 <metadata>
  <rdf:RDF>
   <cc:Work rdf:about="">
    <dc:format>image/svg+xml</dc:format>
    <dc:type rdf:resource="http://purl.org/dc/dcmitype/StillImage"/>
    <dc:title/>
   </cc:Work>
  </rdf:RDF>
 </metadata>
 <g transform="translate(0 -217.62)">
  <rect transform="rotate(90)" x="217.62" y="-300" width="300" height="300" rx="15" ry="15" fill="#aaa"/>
  <g fill="none" stroke-linejoin="bevel">
   <path transform="rotate(90)" d="m217.62-200a100 200 0 0 1 100 200" stroke="#000" stroke-width="15"/>
   <path transform="rotate(90)" d="m417.62-4.641e-6a100 100 0 0 1 100-100" stroke="#000" stroke-width="15"/>
   <path transform="rotate(90)" d="m317.62-300a100 200 0 0 1-100 200" stroke="#aaa" stroke-width="25"/>
   <path transform="rotate(90)" d="m517.62-200a100 100 0 0 1-70.711-29.289 100 100 0 0 1-29.289-70.711" stroke="#000" stroke-width="15"/>
   <path transform="rotate(90)" d="m317.62-300a100 200 0 0 1-100 200" stroke="#000" stroke-width="15"/>
  </g>
 </g>
</svg>
